<svg xmlns="http://www.w3.org/2000/svg" xmlns:xlink="http://www.w3.org/1999/xlink" x="0px" y="0px" viewBox="0 0 299.4 295.7" width="299.4px" height="295.7px" role="img">
    <title></title>
    <polygon points="299.3,295.7 299.3,295.6 299.3,295.6 "></polygon>
    <polygon points="299.3,295.6 299.3,295.6 299.3,295.6 "></polygon>
    <path d="M67.9,108.1c-15.6,18.9-28.8,39.6-39.3,61.7l270.6,125.9L67.9,108.1z"></path>
    <path d="M299.2,295.6L173,27.2c-22.2,10.2-43,23.1-62,38.4l188.3,230.1L299.2,295.6z"></path>
    <polygon points="299.3,295.6 299.3,295.6 299.3,295.6 299.3,295.5 "></polygon>
    <polygon points="299.3,295.6 299.3,295.6 299.3,295.6 299.3,295.5 "></polygon>
    <path d="M9.3,223.2c-6.1,23.7-9.2,48-9.3,72.5h299.2L9.3,223.2z"></path>
    <path d="M299.3,295.6l0.1-295.6c-0.8,0-1.5-0.1-2.2-0.1c-23.6,0-47,2.8-69.9,8.4L299.3,295.6L299.3,295.6z"></path>
</svg>